# xmcd
#
# Track frame offsets:
#	150
#	20789
#	34678
#	46138
#	60513
#	71213
#	92504
#	126557
#	152237
#	174137
#	188722
#	208971
#	228354
#	240257
#
# Disc length: 3388 seconds
#
# Revision: 1
# Processed by: cddbd v1.5.2PL0 Copyright (c) Steve Scherf et al.
# Submitted via: audiograbber 1.83.01
#
DISCID=ba0d3a0e
DTITLE=Various Artist - BLUES - CD1 Tonight Show
DYEAR=1900
DGENRE=Blues
TTITLE0=B.B.King - Why I Sing The Blues
TTITLE1=Leadbelly - Alabama Bound
TTITLE2=Memphis Slim - When I'm Gone
TTITLE3=Miff Mole's Molers - Davenport Blues
TTITLE4=Art Tatum - Apollo Boogie
TTITLE5=Teddy Wilson - Limehouse Blues
TTITLE6=Jimmy Witherspoon - Slow Blues In G
TTITLE7=Jimmy Hamilton - C Jam Blues
TTITLE8=Carmen Mc Rae - Everything A Good Man Needs
TTITLE9=Cab Calloway - Minnie The Moocher
TTITLE10=Dizzy Gillespie - Slam Slam Blues
TTITLE11=Jimmy Witherspoon - Walking On A Tightrope
TTITLE12=Memphis Slim - Memphis Slim USA
TTITLE13=Louis Armstrong - Where The Blues Were Born In New Orleans
EXTD=
EXTT0=
EXTT1=
EXTT2=
EXTT3=
EXTT4=
EXTT5=
EXTT6=
EXTT7=
EXTT8=
EXTT9=
EXTT10=
EXTT11=
EXTT12=
EXTT13=
PLAYORDER=
